<svg xmlns="http://www.w3.org/2000/svg" xmlns:xlink="http://www.w3.org/1999/xlink" width="228" zoomAndPan="magnify" viewBox="0 0 171 30.000001" height="40" preserveAspectRatio="xMidYMid meet" version="1.0"><defs><g/><clipPath id="5c4807a195"><path d="M 153.171875 16 L 165.511719 16 L 165.511719 27.582031 L 153.171875 27.582031 Z M 153.171875 16 " clip-rule="nonzero"/></clipPath></defs><g fill="#000000" fill-opacity="1"><g transform="translate(10.3597, 18.990179)"><g><path d="M 4.238281 0 L 4.238281 -11.941406 C 4.820312 -12.125 6.40625 -12.3125 7.441406 -12.3125 L 9.664062 -12.3125 L 9.664062 -14.746094 L 6.9375 -14.746094 C 5.667969 -14.746094 3.496094 -14.617188 1.613281 -14.140625 L 1.613281 0 Z M 4.238281 0 "/></g></g></g><g fill="#000000" fill-opacity="1"><g transform="translate(21.026778, 18.990179)"><g><path d="M 8.289062 -15.171875 C 6.433594 -15.171875 4.289062 -14.722656 2.9375 -14.113281 L 2.4375 -11.597656 C 4.078125 -12.3125 6.117188 -12.839844 7.757812 -12.839844 C 10.589844 -12.839844 11.96875 -11.835938 11.96875 -9.503906 L 11.96875 -8.65625 C 10.378906 -8.871094 9.082031 -8.976562 7.835938 -8.976562 C 3.574219 -8.976562 1.164062 -7.441406 1.164062 -4.367188 L 1.164062 -4.316406 C 1.164062 -1.03125 3.734375 0.371094 8.289062 0.371094 C 10.085938 0.371094 12.578125 0.105469 14.589844 -0.265625 L 14.589844 -9.558594 C 14.589844 -13.6875 12.101562 -15.171875 8.289062 -15.171875 Z M 3.890625 -4.367188 C 3.890625 -6.035156 5.507812 -6.621094 8.394531 -6.621094 C 9.292969 -6.621094 10.722656 -6.511719 11.96875 -6.300781 L 11.96875 -2.410156 C 10.75 -2.222656 9.320312 -2.089844 8.394531 -2.089844 C 5.507812 -2.089844 3.890625 -2.699219 3.890625 -4.316406 Z M 3.890625 -4.367188 "/></g></g></g><g fill="#000000" fill-opacity="1"><g transform="translate(37.120057, 18.990179)"><g><path d="M 11.863281 -2.9375 C 10.828125 -2.78125 9.292969 -2.675781 8.101562 -2.675781 C 5.691406 -2.675781 4.238281 -3.546875 4.238281 -6.089844 L 4.238281 -14.722656 L 1.613281 -14.722656 L 1.613281 -5.796875 C 1.613281 -1.589844 4.421875 -0.292969 7.96875 -0.292969 C 9.027344 -0.292969 10.617188 -0.421875 11.863281 -0.609375 L 11.863281 0.183594 C 11.863281 2.515625 10.828125 3.679688 7.863281 3.679688 C 6.40625 3.679688 4.316406 3.175781 2.964844 2.355469 L 3.46875 5.058594 C 4.5 5.640625 6.460938 6.0625 8.207031 6.0625 C 11.730469 6.0625 14.507812 4.632812 14.507812 0.476562 L 14.507812 -14.457031 L 11.863281 -14.457031 Z M 11.863281 -2.9375 "/></g></g></g><g fill="#000000" fill-opacity="1"><g transform="translate(53.239804, 18.990179)"><g><path d="M 8.128906 -15.199219 C 7.148438 -15.199219 5.746094 -15.09375 4.238281 -14.878906 L 4.238281 -21.472656 L 1.613281 -21.472656 L 1.613281 0 L 4.238281 0 L 4.238281 -12.472656 C 5.585938 -12.683594 6.964844 -12.839844 7.96875 -12.839844 C 10.40625 -12.839844 11.863281 -11.941406 11.863281 -9.371094 L 11.863281 0 L 14.484375 0 L 14.484375 -9.691406 C 14.484375 -13.902344 11.675781 -15.199219 8.128906 -15.199219 Z M 8.128906 -15.199219 "/></g></g></g><g fill="#000000" fill-opacity="1"><g transform="translate(69.333082, 18.990179)"><g><path d="M 8.289062 -15.171875 C 6.433594 -15.171875 4.289062 -14.722656 2.9375 -14.113281 L 2.4375 -11.597656 C 4.078125 -12.3125 6.117188 -12.839844 7.757812 -12.839844 C 10.589844 -12.839844 11.96875 -11.835938 11.96875 -9.503906 L 11.96875 -8.65625 C 10.378906 -8.871094 9.082031 -8.976562 7.835938 -8.976562 C 3.574219 -8.976562 1.164062 -7.441406 1.164062 -4.367188 L 1.164062 -4.316406 C 1.164062 -1.03125 3.734375 0.371094 8.289062 0.371094 C 10.085938 0.371094 12.578125 0.105469 14.589844 -0.265625 L 14.589844 -9.558594 C 14.589844 -13.6875 12.101562 -15.171875 8.289062 -15.171875 Z M 3.890625 -4.367188 C 3.890625 -6.035156 5.507812 -6.621094 8.394531 -6.621094 C 9.292969 -6.621094 10.722656 -6.511719 11.96875 -6.300781 L 11.96875 -2.410156 C 10.75 -2.222656 9.320312 -2.089844 8.394531 -2.089844 C 5.507812 -2.089844 3.890625 -2.699219 3.890625 -4.316406 Z M 3.890625 -4.367188 "/></g></g></g><g fill="#000000" fill-opacity="1"><g transform="translate(85.426361, 18.990179)"><g><path d="M 4.238281 0 L 4.238281 -12.445312 C 5.585938 -12.710938 6.964844 -12.839844 7.996094 -12.839844 C 10.433594 -12.839844 11.863281 -11.941406 11.863281 -9.371094 L 11.863281 0 L 14.507812 0 L 14.507812 -9.691406 C 14.507812 -13.902344 11.675781 -15.199219 8.15625 -15.199219 C 6.621094 -15.199219 4.023438 -14.90625 1.613281 -14.484375 L 1.613281 0 Z M 4.238281 0 "/></g></g></g><g fill="#000000" fill-opacity="1"><g transform="translate(101.519639, 18.990179)"><g><path d="M 4.238281 0 L 4.238281 -11.941406 C 4.820312 -12.125 6.40625 -12.3125 7.441406 -12.3125 L 9.664062 -12.3125 L 9.664062 -14.746094 L 6.9375 -14.746094 C 5.667969 -14.746094 3.496094 -14.617188 1.613281 -14.140625 L 1.613281 0 Z M 4.238281 0 "/></g></g></g><g fill="#000000" fill-opacity="1"><g transform="translate(112.186717, 18.990179)"><g><path d="M 17.34375 -7.546875 C 16.890625 -5.796875 16.441406 -4.128906 16.125 -2.859375 L 14.773438 -7.574219 L 12.761719 -14.722656 L 9.480469 -14.722656 L 6.195312 -2.621094 C 5.878906 -3.867188 5.558594 -4.925781 4.898438 -7.519531 L 3.042969 -14.722656 L 0.265625 -14.722656 L 4.394531 0 L 7.890625 0 L 9.980469 -7.574219 C 10.5625 -9.664062 10.882812 -10.882812 11.121094 -11.78125 L 12.3125 -7.574219 L 14.402344 0 L 17.898438 0 L 21.976562 -14.722656 L 19.167969 -14.722656 Z M 15.648438 -1.085938 C 15.488281 -0.449219 15.460938 -0.34375 15.648438 -1.085938 Z M 15.648438 -1.085938 "/></g></g></g><g fill="#000000" fill-opacity="1"><g transform="translate(134.420836, 18.990179)"><g><path d="M 8.289062 -15.171875 C 6.433594 -15.171875 4.289062 -14.722656 2.9375 -14.113281 L 2.4375 -11.597656 C 4.078125 -12.3125 6.117188 -12.839844 7.757812 -12.839844 C 10.589844 -12.839844 11.96875 -11.835938 11.96875 -9.503906 L 11.96875 -8.65625 C 10.378906 -8.871094 9.082031 -8.976562 7.835938 -8.976562 C 3.574219 -8.976562 1.164062 -7.441406 1.164062 -4.367188 L 1.164062 -4.316406 C 1.164062 -1.03125 3.734375 0.371094 8.289062 0.371094 C 10.085938 0.371094 12.578125 0.105469 14.589844 -0.265625 L 14.589844 -9.558594 C 14.589844 -13.6875 12.101562 -15.171875 8.289062 -15.171875 Z M 3.890625 -4.367188 C 3.890625 -6.035156 5.507812 -6.621094 8.394531 -6.621094 C 9.292969 -6.621094 10.722656 -6.511719 11.96875 -6.300781 L 11.96875 -2.410156 C 10.75 -2.222656 9.320312 -2.089844 8.394531 -2.089844 C 5.507812 -2.089844 3.890625 -2.699219 3.890625 -4.316406 Z M 3.890625 -4.367188 "/></g></g></g><g clip-path="url(#5c4807a195)"><path fill="#29a587" d="M 163.28125 27.359375 C 163.527344 27.207031 163.707031 26.972656 163.8125 26.703125 C 164.035156 26.136719 163.957031 25.496094 163.855469 24.914062 C 163.742188 24.28125 163.601562 23.535156 163.929688 22.941406 C 164.097656 22.644531 164.375 22.441406 164.625 22.21875 C 164.875 21.992188 165.066406 21.730469 165.152344 21.398438 C 165.328125 20.726562 165.082031 20.039062 164.675781 19.503906 C 164.554688 19.351562 164.425781 19.207031 164.289062 19.070312 C 164.261719 18.886719 164.242188 18.707031 164.21875 18.535156 C 164.175781 18.253906 164.113281 17.96875 163.976562 17.714844 C 163.839844 17.46875 163.644531 17.277344 163.394531 17.140625 C 162.890625 16.863281 162.273438 16.847656 161.714844 16.9375 C 161.574219 16.960938 161.433594 16.992188 161.296875 17.03125 C 161.101562 17.085938 160.90625 17.15625 160.707031 17.167969 C 160.3125 17.1875 159.960938 16.953125 159.613281 16.800781 C 158.898438 16.484375 158.152344 16.261719 157.382812 16.132812 C 156.652344 16.011719 155.890625 15.96875 155.167969 16.15625 C 154.515625 16.324219 153.925781 16.699219 153.550781 17.269531 C 153.375 17.539062 153.261719 17.832031 153.21875 18.152344 C 153.175781 18.484375 153.234375 18.8125 153.359375 19.121094 C 153.496094 19.457031 153.691406 19.761719 153.863281 20.078125 C 154.039062 20.402344 154.171875 20.742188 154.257812 21.101562 C 154.441406 21.835938 154.480469 22.59375 154.597656 23.335938 C 154.695312 23.964844 154.867188 24.578125 155.195312 25.125 C 155.496094 25.617188 155.917969 26.050781 156.472656 26.246094 C 156.785156 26.355469 157.117188 26.367188 157.445312 26.324219 C 157.824219 26.277344 158.1875 26.167969 158.5625 26.117188 C 158.925781 26.0625 159.277344 26.097656 159.617188 26.222656 C 159.945312 26.34375 160.242188 26.53125 160.53125 26.71875 C 160.820312 26.910156 161.105469 27.113281 161.417969 27.265625 C 161.714844 27.410156 162.035156 27.519531 162.367188 27.550781 C 162.679688 27.578125 163.007812 27.527344 163.28125 27.359375 Z M 163.28125 27.359375 " fill-opacity="1" fill-rule="nonzero"/></g></svg>